<svg xmlns="http://www.w3.org/2000/svg" width="40.815" height="40.815" viewBox="0 0 40.815 40.815">
  <g id="Group_164" data-name="Group 164" transform="translate(1294 -1055.185)">
    <g id="Group_135" data-name="Group 135" transform="translate(-1294 1055.185)">
      <g id="Ellipse_1" data-name="Ellipse 1" fill="none" stroke="#fff" stroke-width="1">
        <circle cx="20.407" cy="20.407" r="20.407" stroke="none"/>
        <circle cx="20.407" cy="20.407" r="19.907" fill="none"/>
      </g>
      <g id="Group_136" data-name="Group 136" transform="translate(10.321 12.667)">
        <path id="Path_26" data-name="Path 26" d="M22.274,90.831H38.368a2.276,2.276,0,0,0,1.946-1.1.283.283,0,0,0,.039-.07,2.254,2.254,0,0,0,.289-1.106V77.274A2.275,2.275,0,0,0,38.368,75H22.274A2.275,2.275,0,0,0,20,77.274V88.557A2.275,2.275,0,0,0,22.274,90.831ZM21.05,78.455l5.4,3.687-5.4,6.219Zm1.225,11.327a1.194,1.194,0,0,1-.8-.306l5.851-6.744,1.736,1.185a2.26,2.26,0,0,0,1.281.4,2.287,2.287,0,0,0,1.251-.376l1.776-1.168L39.2,89.458a1.225,1.225,0,0,1-.831.324Zm17.318-1.465-5.344-6.123,5.344-3.516ZM22.274,76.05H38.368a1.225,1.225,0,0,1,1.225,1.225v.149l-8.58,5.646a1.214,1.214,0,0,1-1.364-.013l-8.594-5.869A1.223,1.223,0,0,1,22.274,76.05Z" transform="translate(-20 -75)" fill="#fff"/>
      </g>
    </g>
    <g id="Group_151" data-name="Group 151" transform="translate(-1294 1055.185)">
      <g id="Ellipse_1-2" data-name="Ellipse 1" fill="none" stroke="#fff" stroke-width="1">
        <circle cx="20.407" cy="20.407" r="20.407" stroke="none"/>
        <circle cx="20.407" cy="20.407" r="19.907" fill="none"/>
      </g>
      <g id="Group_136-2" data-name="Group 136" transform="translate(10.321 12.667)">
        <path id="Path_26-2" data-name="Path 26" d="M22.274,90.831H38.368a2.276,2.276,0,0,0,1.946-1.1.283.283,0,0,0,.039-.07,2.254,2.254,0,0,0,.289-1.106V77.274A2.275,2.275,0,0,0,38.368,75H22.274A2.275,2.275,0,0,0,20,77.274V88.557A2.275,2.275,0,0,0,22.274,90.831ZM21.05,78.455l5.4,3.687-5.4,6.219Zm1.225,11.327a1.194,1.194,0,0,1-.8-.306l5.851-6.744,1.736,1.185a2.26,2.26,0,0,0,1.281.4,2.287,2.287,0,0,0,1.251-.376l1.776-1.168L39.2,89.458a1.225,1.225,0,0,1-.831.324Zm17.318-1.465-5.344-6.123,5.344-3.516ZM22.274,76.05H38.368a1.225,1.225,0,0,1,1.225,1.225v.149l-8.58,5.646a1.214,1.214,0,0,1-1.364-.013l-8.594-5.869A1.223,1.223,0,0,1,22.274,76.05Z" transform="translate(-20 -75)" fill="#fff"/>
      </g>
    </g>
  </g>
</svg>
