<svg id="Group_142" data-name="Group 142" xmlns="http://www.w3.org/2000/svg" width="113.034" height="26.404" viewBox="0 0 113.034 26.404">
  <path id="Path_14" data-name="Path 14" d="M79.154,20.981a5.274,5.274,0,0,1-1.515,4.125,5.465,5.465,0,0,1-3.826,1.255,5.309,5.309,0,0,1-3.766-1.255,5.35,5.35,0,0,1-1.513-4.125V14.025h3.427v6.934c0,1.614.637,2.411,1.913,2.411,1.255,0,1.873-.8,1.873-2.411V14.025h3.427v6.956Zm23.173-.959c0,2.212-.558,3.8-1.654,4.782a7.326,7.326,0,0,1-4.882,1.355H91.866V14.025h4.244a6.83,6.83,0,0,1,4.543,1.275Q102.327,16.764,102.327,20.022Zm-3.447.06a3.742,3.742,0,0,0-.637-2.431,2.7,2.7,0,0,0-2.174-.737h-.833V23.29h.717a2.962,2.962,0,0,0,2.251-.717A3.6,3.6,0,0,0,98.88,20.082Zm7.591,6.077h-3.427V14.025h3.427Zm12.632,0h-3.626l-.658-2.132h-3.626l-.658,2.132H106.93l4.4-12.114h3.387Zm-5.121-4.8-.217-.8c-.418-1.455-.678-2.47-.777-3.029-.1.558-.359,1.576-.777,3.029l-.217.8Zm14.228,4.8h-8.767V14.025h3.387v9.184h5.362v2.949Zm9.883,0h-9.4V14.025h9.285v2.829h-5.958v1.614H135.6v2.789h-3.587v2.072h6.077v2.829ZM64.47,14.025l-1.494,3.228A30.464,30.464,0,0,0,61.461,20.9a31.815,31.815,0,0,0-1.515-3.646l-.717-1.576a2.916,2.916,0,0,0-.439-.658A3.215,3.215,0,0,0,56.479,14H55.364V26.119h3.148V23.25q0-1.973-.06-3.228c.38.936.857,1.992,1.395,3.168L61.222,26.1h.439l1.375-2.909q.755-1.559,1.395-3.168-.06,1.255-.06,3.228v2.889h3.148V14.025ZM90.79,14H87.443V20.52l-1.754-2.81c-.518-.837-1.076-1.734-1.076-1.734a4.946,4.946,0,0,0-1.156-1.335A3.525,3.525,0,0,0,81.744,14H80.19V26.119h3.369V20.081l3.8,6.037h3.407V14Zm.16,14.9c.6,0,.837.38.837.936v.418c0,.618-.279.917-.9.917h-.478v1.594h-.259V28.908Zm-.06,2.032c.439,0,.637-.2.637-.678V29.8c0-.418-.14-.7-.578-.7h-.538v1.811h.478Zm2.57.976-.2.857h-.239l.837-3.865h.38l.857,3.865h-.259l-.2-.857Zm.04-.217h1.136l-.578-2.511Zm3.248-2.791v3.865h-.259V28.908Zm2.411,2.072-.777,1.793h-.239l.877-2.011L98.2,28.91h.259l.737,1.654.735-1.655h.239l-.815,1.853.877,2.011h-.279Zm2.81.937-.2.857h-.239l.857-3.865h.38l.857,3.865h-.259l-.2-.857h-1.2Zm.877-3.447c.1,0,.159-.08.2-.179l.14.1c-.08.159-.179.259-.319.259-.2.02-.339-.179-.518-.179a.282.282,0,0,0-.239.159l-.14-.08a.369.369,0,0,1,.339-.259C102.526,28.271,102.666,28.47,102.845,28.47Zm-.837,3.228h1.136l-.578-2.511Zm2.969-1.851c0-.558.259-.978.837-.978.6,0,.857.418.857.978v1.973c0,.558-.259.978-.857.978-.578,0-.837-.418-.837-.978Zm.259,1.992c0,.418.159.737.6.737s.6-.319.6-.737V29.828c0-.418-.179-.737-.6-.737s-.6.319-.6.737Zm5.519-2.931c.6,0,.837.38.837.936v.418c0,.618-.279.917-.9.917h-.478v1.594h-.259V28.908Zm-.06,2.032c.439,0,.637-.2.637-.678V29.8c0-.418-.14-.7-.578-.7h-.538v1.811h.478Zm2.251-1.094c0-.558.259-.978.837-.978.6,0,.857.418.857.978v1.973c0,.558-.259.978-.857.978-.578,0-.837-.418-.837-.978Zm.239,1.992c0,.418.159.737.6.737s.6-.319.6-.737V29.828c0-.418-.179-.737-.6-.737s-.6.319-.6.737Zm3.666-2.931c.6,0,.837.319.837.877v.339c0,.458-.179.717-.558.8a.7.7,0,0,1,.558.8v.6a.867.867,0,0,0,.1.458h-.259a1,1,0,0,1-.08-.458v-.6c0-.518-.279-.658-.717-.658h-.4v1.734h-.259V28.908Zm-.14,1.893c.458,0,.717-.12.717-.637V29.8c0-.418-.159-.658-.578-.658h-.538v1.674h.4Zm4.523-1.893.777,3.567.777-3.567h.239l-.837,3.865h-.38l-.855-3.865Zm4.5,1.793v.239h-1.056v1.614h1.275v.239h-1.535V28.908h1.534v.239h-1.275V30.7Zm1.853,2.072h-.239V28.908h.339l1.156,3.268V28.908h.239v3.865h-.279l-1.216-3.447Zm3.766-3.865c.6,0,.857.4.857.956v1.953c0,.578-.259.956-.857.956H130.5V28.908Zm0,3.626c.439,0,.6-.3.6-.717V29.845c0-.418-.179-.717-.6-.717h-.6v3.407Zm3.587-1.833v.239h-1.056v1.614h1.275v.239h-1.535V28.908h1.534v.239h-1.275V30.7Zm2.431-1.793c.6,0,.837.319.837.877v.339c0,.458-.179.717-.558.8a.7.7,0,0,1,.558.8v.6a.867.867,0,0,0,.1.458h-.259a1,1,0,0,1-.08-.458v-.6c0-.518-.279-.658-.717-.658h-.4v1.734H136.6V28.908Zm-.159,1.893c.458,0,.717-.12.717-.637V29.8c0-.418-.159-.658-.578-.658h-.538v1.674h.4Z" transform="translate(-25.277 -6.393)" fill="#fff"/>
  <path id="Path_15" data-name="Path 15" d="M43.247,5.848l-3.228,5.479L36.592,5.589,39.82.11Z" transform="translate(-16.707 -0.05)" fill="#81d8df"/>
  <path id="Path_16" data-name="Path 16" d="M15.291,0,12.063,5.479l3.467,5.778,3.228-5.479Z" transform="translate(-5.508)" fill="#007faf"/>
  <path id="Path_17" data-name="Path 17" d="M15.291,0,12.063,5.479l13.33.06L28.621.06Z" transform="translate(-5.508)" fill="#00a3d3"/>
  <path id="Path_18" data-name="Path 18" d="M19.636,36.777,22.864,31.3l-13.33-.06L6.306,36.717Z" transform="translate(-2.879 -14.262)" fill="#729e33"/>
  <path id="Path_19" data-name="Path 19" d="M27.922,31.973l3.228-5.479-3.467-5.778-3.228,5.479Z" transform="translate(-11.165 -9.458)" fill="#8ac543"/>
  <path id="Path_20" data-name="Path 20" d="M0,25.9l3.228-5.479L6.655,26.3,3.427,31.78Z" transform="translate(0 -9.324)" fill="#618425"/>
</svg>
