<svg xmlns="http://www.w3.org/2000/svg" width="375" height="164" viewBox="0 0 375 164">
  <g id="Group_174" data-name="Group 174" transform="translate(1 1)">
    <g id="Group_167" data-name="Group 167" transform="translate(1983 493)">
      <g id="Group_168" data-name="Group 168">
        <g id="Group_162" data-name="Group 162">
          <g id="Group_161" data-name="Group 161" transform="translate(37 -173)">
            <g id="Group_160" data-name="Group 160" transform="translate(-2021 -321)">
              <g id="Rectangle_9" data-name="Rectangle 9" transform="translate(148 108) rotate(-45)" fill="none" stroke="#fff" stroke-width="1">
                <rect width="56" height="56" stroke="none"/>
                <rect x="0.5" y="0.5" width="55" height="55" fill="none"/>
              </g>
              <line id="Line_2" data-name="Line 2" x1="84" y1="84" transform="translate(187.5 68.5)" fill="none" stroke="#fff" stroke-width="1"/>
              <circle id="Ellipse_2" data-name="Ellipse 2" cx="4.5" cy="4.5" r="4.5" transform="translate(267 148)" fill="#fff"/>
              <rect id="Rectangle_27" data-name="Rectangle 27" width="375" height="164" fill="none"/>
              <path id="Path_65" data-name="Path 65" d="M109.156,109.438,66.754,66.9" transform="translate(41.5 0.5)" fill="none" stroke="#fff" stroke-width="1"/>
            </g>
            <line id="Line_9" data-name="Line 9" x1="108" transform="translate(-2020.5 -253.5)" fill="none" stroke="#fff" stroke-width="1"/>
          </g>
        </g>
      </g>
    </g>
    <g id="Group_173" data-name="Group 173" transform="translate(10 38.094)">
      <path id="Path_14" data-name="Path 14" d="M74.306,19.559A4.2,4.2,0,0,1,73.1,22.843a4.351,4.351,0,0,1-3.046,1,4.227,4.227,0,0,1-3-1,4.26,4.26,0,0,1-1.205-3.284V14.02h2.729v5.521c0,1.285.508,1.919,1.523,1.919,1,0,1.491-.635,1.491-1.919V14.02h2.729v5.538ZM92.757,18.8A4.877,4.877,0,0,1,91.44,22.6a5.833,5.833,0,0,1-3.887,1.079H84.428V14.02h3.379a5.438,5.438,0,0,1,3.617,1.016A4.753,4.753,0,0,1,92.757,18.8Zm-2.745.048a2.98,2.98,0,0,0-.508-1.935,2.148,2.148,0,0,0-1.731-.587h-.663V21.4h.571a2.359,2.359,0,0,0,1.793-.571A2.868,2.868,0,0,0,90.012,18.843Zm6.044,4.839H93.328V14.02h2.729Zm10.057,0h-2.887l-.524-1.7H99.816l-.524,1.7h-2.87l3.5-9.646h2.7Zm-4.077-3.823-.173-.635c-.333-1.158-.54-1.967-.619-2.411-.079.444-.286,1.255-.619,2.411l-.173.635Zm11.328,3.824h-6.981V14.02h2.7v7.312h4.269v2.348Zm7.869,0h-7.488V14.02h7.393v2.253H116.4v1.285h2.856v2.221H116.4v1.65h4.839v2.253ZM62.614,14.02l-1.19,2.57a24.258,24.258,0,0,0-1.206,2.9,25.332,25.332,0,0,0-1.206-2.9l-.571-1.255a2.322,2.322,0,0,0-.349-.524A2.56,2.56,0,0,0,56.252,14h-.888V23.65h2.507V21.365q0-1.571-.048-2.57c.3.746.682,1.586,1.111,2.523l1.095,2.316h.349l1.095-2.316q.6-1.241,1.111-2.523-.047,1-.048,2.57v2.3h2.507V14.02ZM83.571,14H80.906v5.188l-1.4-2.237c-.412-.666-.857-1.38-.857-1.38a3.938,3.938,0,0,0-.92-1.063A2.806,2.806,0,0,0,76.369,14H75.131V23.65h2.683V18.843l3.029,4.807h2.713V14ZM83.7,25.871c.476,0,.666.3.666.746v.333c0,.492-.222.73-.714.73H83.27v1.269h-.206V25.871Zm-.048,1.618c.349,0,.508-.159.508-.54v-.365c0-.333-.111-.555-.46-.555H83.27v1.442h.381Zm2.047.777-.159.682h-.19l.666-3.078h.3L87,28.949h-.206l-.159-.682Zm.032-.173h.9l-.46-2Zm2.586-2.222v3.078h-.206V25.871Zm1.92,1.65-.619,1.428h-.19l.7-1.6-.649-1.475h.206l.587,1.317.585-1.318h.19l-.649,1.475.7,1.6h-.222Zm2.237.746-.159.682h-.19l.682-3.078h.3l.682,3.078h-.206l-.159-.682h-.953Zm.7-2.745c.079,0,.127-.064.159-.143l.111.079c-.064.127-.143.206-.254.206-.159.016-.27-.143-.412-.143a.224.224,0,0,0-.19.127l-.111-.064a.294.294,0,0,1,.27-.206C92.916,25.363,93.027,25.522,93.17,25.522Zm-.666,2.57h.9l-.46-2Zm2.364-1.474c0-.444.206-.779.666-.779.476,0,.682.333.682.779v1.571c0,.444-.206.779-.682.779-.46,0-.666-.333-.666-.779Zm.206,1.586c0,.333.127.587.476.587s.476-.254.476-.587V26.6c0-.333-.143-.587-.476-.587s-.476.254-.476.587Zm4.394-2.334c.476,0,.666.3.666.746v.333c0,.492-.222.73-.714.73H99.04v1.269h-.206V25.871Zm-.048,1.618c.349,0,.508-.159.508-.54v-.365c0-.333-.111-.555-.46-.555H99.04v1.442h.381Zm1.793-.871c0-.444.206-.779.666-.779.476,0,.682.333.682.779v1.571c0,.444-.206.779-.682.779-.46,0-.666-.333-.666-.779Zm.19,1.586c0,.333.127.587.476.587s.476-.254.476-.587V26.6c0-.333-.143-.587-.476-.587s-.476.254-.476.587Zm2.919-2.334c.476,0,.666.254.666.7v.27c0,.365-.143.571-.444.635a.561.561,0,0,1,.444.635v.476a.69.69,0,0,0,.079.365h-.206a.793.793,0,0,1-.064-.365v-.476c0-.412-.222-.524-.571-.524h-.317v1.38H103.7V25.871Zm-.111,1.507c.365,0,.571-.1.571-.508v-.286c0-.333-.127-.524-.46-.524h-.428v1.333h.317Zm3.6-1.507.619,2.84.619-2.84h.19l-.666,3.078h-.3l-.681-3.078ZM111.4,27.3v.19h-.841v1.285h1.016v.19h-1.222V25.871h1.221v.19h-1.016V27.3Zm1.475,1.65h-.19V25.871h.27l.92,2.6v-2.6h.19v3.078h-.222l-.968-2.745Zm3-3.078c.476,0,.682.317.682.762v1.555c0,.46-.206.762-.682.762h-.682V25.871Zm0,2.887c.349,0,.476-.238.476-.571V26.616c0-.333-.143-.571-.476-.571H115.4v2.713Zm2.856-1.459v.19h-.841v1.285H118.9v.19H117.68V25.871H118.9v.19h-1.016V27.3Zm1.935-1.428c.476,0,.666.254.666.7v.27c0,.365-.143.571-.444.635a.559.559,0,0,1,.444.635v.476a.69.69,0,0,0,.079.365H121.2a.792.792,0,0,1-.064-.365v-.476c0-.412-.222-.524-.571-.524h-.317v1.38h-.206V25.871Zm-.127,1.507c.365,0,.571-.1.571-.508v-.286c0-.333-.127-.524-.46-.524h-.428v1.333h.317Z" transform="translate(-31.408 -7.944)" fill="#fff"/>
      <path id="Path_15" data-name="Path 15" d="M41.891,4.679l-2.57,4.363L36.592,4.473,39.162.11Z" transform="translate(-20.759 -0.062)" fill="#81d8df"/>
      <path id="Path_16" data-name="Path 16" d="M14.633,0l-2.57,4.363,2.761,4.6L17.394,4.6Z" transform="translate(-6.843)" fill="#007faf"/>
      <path id="Path_17" data-name="Path 17" d="M14.633,0l-2.57,4.363,10.614.048L25.247.048Z" transform="translate(-6.843)" fill="#00a3d3"/>
      <path id="Path_18" data-name="Path 18" d="M16.92,35.648l2.57-4.363L8.876,31.238,6.306,35.6Z" transform="translate(-3.577 -17.722)" fill="#729e33"/>
      <path id="Path_19" data-name="Path 19" d="M27.216,29.679l2.57-4.363-2.761-4.6-2.57,4.363Z" transform="translate(-13.874 -11.752)" fill="#8ac543"/>
      <path id="Path_20" data-name="Path 20" d="M0,24.785l2.57-4.363L5.3,25.1l-2.57,4.363Z" transform="translate(0 -11.586)" fill="#618425"/>
    </g>
  </g>
</svg>
