<svg xmlns="http://www.w3.org/2000/svg" width="40.815" height="40.815" viewBox="0 0 40.815 40.815">
  <g id="Group_165" data-name="Group 165" transform="translate(1215.815 -1055.185)">
    <g id="Group_141" data-name="Group 141" transform="translate(-1215.815 1055.185)">
      <g id="Group_140" data-name="Group 140">
        <g id="Ellipse_1" data-name="Ellipse 1" transform="translate(0)" fill="none" stroke="#fff" stroke-width="1">
          <circle cx="20.407" cy="20.407" r="20.407" stroke="none"/>
          <circle cx="20.407" cy="20.407" r="19.907" fill="none"/>
        </g>
      </g>
      <g id="Group_139" data-name="Group 139" transform="translate(11.728 7.325)">
        <g id="Group_137" data-name="Group 137" transform="translate(0 0)">
          <path id="Path_27" data-name="Path 27" d="M28.589,5.03a8.924,8.924,0,0,0-8.914,8.914c0,4.734,8.108,16.529,8.454,17.03l.46.663.457-.663c.345-.5,8.457-12.3,8.457-17.03A8.923,8.923,0,0,0,28.589,5.03Zm0,1.115a7.809,7.809,0,0,1,7.8,7.8c0,3.778-6.063,13.121-7.8,15.718-1.736-2.6-7.8-11.94-7.8-15.718A7.807,7.807,0,0,1,28.589,6.145Z" transform="translate(-19.675 -5.03)" fill="#fff"/>
        </g>
        <g id="Group_138" data-name="Group 138" transform="translate(3.723 3.439)">
          <path id="Path_28" data-name="Path 28" d="M37.514,16.678A5.228,5.228,0,1,0,42.744,21.9,5.233,5.233,0,0,0,37.514,16.678Zm0,9.275A4.047,4.047,0,1,1,41.563,21.9,4.053,4.053,0,0,1,37.514,25.953Z" transform="translate(-32.285 -16.678)" fill="#fff"/>
        </g>
      </g>
    </g>
    <g id="Group_152" data-name="Group 152" transform="translate(-1215.815 1055.185)">
      <g id="Group_140-2" data-name="Group 140">
        <g id="Ellipse_1-2" data-name="Ellipse 1" transform="translate(0)" fill="none" stroke="#fff" stroke-width="1">
          <circle cx="20.407" cy="20.407" r="20.407" stroke="none"/>
          <circle cx="20.407" cy="20.407" r="19.907" fill="none"/>
        </g>
      </g>
      <g id="Group_139-2" data-name="Group 139" transform="translate(11.728 7.325)">
        <g id="Group_137-2" data-name="Group 137" transform="translate(0 0)">
          <path id="Path_27-2" data-name="Path 27" d="M28.589,5.03a8.924,8.924,0,0,0-8.914,8.914c0,4.734,8.108,16.529,8.454,17.03l.46.663.457-.663c.345-.5,8.457-12.3,8.457-17.03A8.923,8.923,0,0,0,28.589,5.03Zm0,1.115a7.809,7.809,0,0,1,7.8,7.8c0,3.778-6.063,13.121-7.8,15.718-1.736-2.6-7.8-11.94-7.8-15.718A7.807,7.807,0,0,1,28.589,6.145Z" transform="translate(-19.675 -5.03)" fill="#fff"/>
        </g>
        <g id="Group_138-2" data-name="Group 138" transform="translate(3.723 3.439)">
          <path id="Path_28-2" data-name="Path 28" d="M37.514,16.678A5.228,5.228,0,1,0,42.744,21.9,5.233,5.233,0,0,0,37.514,16.678Zm0,9.275A4.047,4.047,0,1,1,41.563,21.9,4.053,4.053,0,0,1,37.514,25.953Z" transform="translate(-32.285 -16.678)" fill="#fff"/>
        </g>
      </g>
    </g>
  </g>
</svg>
